<svg width="461" height="112" viewBox="0 0 461 112" fill="none" xmlns="http://www.w3.org/2000/svg">
<g filter="url(#filter0_d_1_11112)">
<path d="M129.078 27.81V40.5H127.62V34.686H120.024V40.5H118.566V27.81H120.024V33.426H127.62V27.81H129.078ZM139.335 36.342H132.927C132.975 37.362 133.251 38.136 133.755 38.664C134.259 39.18 134.973 39.438 135.897 39.438C136.917 39.438 137.853 39.09 138.705 38.394L139.191 39.456C138.807 39.816 138.315 40.104 137.715 40.32C137.115 40.524 136.503 40.626 135.879 40.626C134.511 40.626 133.431 40.224 132.639 39.42C131.859 38.616 131.469 37.506 131.469 36.09C131.469 35.19 131.643 34.398 131.991 33.714C132.339 33.018 132.825 32.478 133.449 32.094C134.085 31.71 134.805 31.518 135.609 31.518C136.773 31.518 137.685 31.902 138.345 32.67C139.005 33.426 139.335 34.47 139.335 35.802V36.342ZM135.627 32.652C134.859 32.652 134.241 32.892 133.773 33.372C133.317 33.852 133.047 34.53 132.963 35.406H138.057C138.033 34.518 137.811 33.84 137.391 33.372C136.971 32.892 136.383 32.652 135.627 32.652ZM141.483 27.81H142.941V40.5H141.483V27.81ZM150.076 31.518C150.844 31.518 151.522 31.71 152.11 32.094C152.698 32.478 153.154 33.018 153.478 33.714C153.802 34.398 153.964 35.196 153.964 36.108C153.964 37.02 153.802 37.818 153.478 38.502C153.154 39.174 152.698 39.696 152.11 40.068C151.534 40.44 150.856 40.626 150.076 40.626C149.392 40.626 148.792 40.476 148.276 40.176C147.772 39.876 147.388 39.45 147.124 38.898V43.74H145.666V31.734H147.124V33.246C147.388 32.694 147.772 32.268 148.276 31.968C148.792 31.668 149.392 31.518 150.076 31.518ZM149.788 39.42C150.64 39.42 151.3 39.132 151.768 38.556C152.236 37.98 152.47 37.164 152.47 36.108C152.47 35.052 152.236 34.23 151.768 33.642C151.3 33.042 150.64 32.742 149.788 32.742C148.936 32.742 148.276 33.03 147.808 33.606C147.352 34.182 147.124 35.004 147.124 36.072C147.124 37.14 147.352 37.968 147.808 38.556C148.276 39.132 148.936 39.42 149.788 39.42ZM163.754 40.626C162.278 40.626 161.108 40.248 160.244 39.492L160.73 38.412C161.198 38.784 161.672 39.054 162.152 39.222C162.644 39.378 163.196 39.456 163.808 39.456C164.456 39.456 164.948 39.348 165.284 39.132C165.632 38.904 165.806 38.58 165.806 38.16C165.806 37.812 165.692 37.536 165.464 37.332C165.236 37.128 164.858 36.966 164.33 36.846L162.854 36.504C162.11 36.336 161.54 36.048 161.144 35.64C160.748 35.232 160.55 34.728 160.55 34.128C160.55 33.348 160.856 32.718 161.468 32.238C162.08 31.758 162.896 31.518 163.916 31.518C164.528 31.518 165.11 31.62 165.662 31.824C166.214 32.016 166.676 32.298 167.048 32.67L166.562 33.732C165.758 33.048 164.876 32.706 163.916 32.706C163.304 32.706 162.824 32.826 162.476 33.066C162.14 33.294 161.972 33.618 161.972 34.038C161.972 34.386 162.074 34.668 162.278 34.884C162.494 35.088 162.836 35.244 163.304 35.352L164.798 35.712C165.614 35.904 166.22 36.198 166.616 36.594C167.012 36.978 167.21 37.482 167.21 38.106C167.21 38.874 166.898 39.486 166.274 39.942C165.662 40.398 164.822 40.626 163.754 40.626ZM172.996 31.518C174.112 31.518 174.94 31.806 175.48 32.382C176.032 32.946 176.308 33.81 176.308 34.974V40.5H174.886V39.006C174.658 39.522 174.31 39.924 173.842 40.212C173.374 40.488 172.834 40.626 172.222 40.626C171.658 40.626 171.136 40.512 170.656 40.284C170.188 40.056 169.816 39.738 169.54 39.33C169.264 38.922 169.126 38.472 169.126 37.98C169.126 37.32 169.294 36.81 169.63 36.45C169.966 36.078 170.518 35.814 171.286 35.658C172.054 35.49 173.122 35.406 174.49 35.406H174.886V34.812C174.886 34.08 174.736 33.552 174.436 33.228C174.136 32.892 173.65 32.724 172.978 32.724C171.97 32.724 170.968 33.036 169.972 33.66L169.486 32.598C169.942 32.274 170.488 32.016 171.124 31.824C171.772 31.62 172.396 31.518 172.996 31.518ZM172.42 39.474C173.14 39.474 173.728 39.234 174.184 38.754C174.652 38.262 174.886 37.632 174.886 36.864V36.342H174.562C173.506 36.342 172.702 36.39 172.15 36.486C171.598 36.57 171.202 36.72 170.962 36.936C170.734 37.14 170.62 37.446 170.62 37.854C170.62 38.322 170.788 38.712 171.124 39.024C171.472 39.324 171.904 39.474 172.42 39.474ZM186.717 31.752L182.937 40.5H181.569L177.807 31.752H179.355L182.289 38.916L185.259 31.752H186.717ZM195.462 36.342H189.054C189.102 37.362 189.378 38.136 189.882 38.664C190.386 39.18 191.1 39.438 192.024 39.438C193.044 39.438 193.98 39.09 194.832 38.394L195.318 39.456C194.934 39.816 194.442 40.104 193.842 40.32C193.242 40.524 192.63 40.626 192.006 40.626C190.638 40.626 189.558 40.224 188.766 39.42C187.986 38.616 187.596 37.506 187.596 36.09C187.596 35.19 187.77 34.398 188.118 33.714C188.466 33.018 188.952 32.478 189.576 32.094C190.212 31.71 190.932 31.518 191.736 31.518C192.9 31.518 193.812 31.902 194.472 32.67C195.132 33.426 195.462 34.47 195.462 35.802V36.342ZM191.754 32.652C190.986 32.652 190.368 32.892 189.9 33.372C189.444 33.852 189.174 34.53 189.09 35.406H194.184C194.16 34.518 193.938 33.84 193.518 33.372C193.098 32.892 192.51 32.652 191.754 32.652ZM210.296 39.258V40.5H203.24V39.258H206.03V29.646L203.798 31.05L203.114 29.916L206.444 27.81H207.506V39.258H210.296ZM217.093 40.644C215.641 40.644 214.537 40.092 213.781 38.988C213.025 37.884 212.647 36.276 212.647 34.164C212.647 32.04 213.025 30.426 213.781 29.322C214.537 28.218 215.641 27.666 217.093 27.666C218.545 27.666 219.649 28.218 220.405 29.322C221.161 30.414 221.539 32.022 221.539 34.146C221.539 36.27 221.161 37.884 220.405 38.988C219.649 40.092 218.545 40.644 217.093 40.644ZM217.093 39.402C218.101 39.402 218.845 38.976 219.325 38.124C219.805 37.272 220.045 35.946 220.045 34.146C220.045 32.334 219.805 31.014 219.325 30.186C218.857 29.346 218.113 28.926 217.093 28.926C216.085 28.926 215.341 29.346 214.861 30.186C214.381 31.026 214.141 32.346 214.141 34.146C214.141 35.946 214.381 37.272 214.861 38.124C215.341 38.976 216.085 39.402 217.093 39.402ZM228.423 35.1H233.463V36.306H228.423V35.1ZM249.116 39.258V40.5H240.944V39.384L245.39 34.488C245.99 33.816 246.422 33.216 246.686 32.688C246.962 32.148 247.1 31.608 247.1 31.068C247.1 30.372 246.896 29.838 246.488 29.466C246.08 29.094 245.504 28.908 244.76 28.908C243.536 28.908 242.336 29.394 241.16 30.366L240.602 29.232C241.106 28.752 241.736 28.374 242.492 28.098C243.26 27.81 244.028 27.666 244.796 27.666C245.96 27.666 246.878 27.966 247.55 28.566C248.234 29.166 248.576 29.976 248.576 30.996C248.576 31.728 248.408 32.43 248.072 33.102C247.748 33.774 247.208 34.524 246.452 35.352L242.852 39.258H249.116ZM255.607 40.644C254.155 40.644 253.051 40.092 252.295 38.988C251.539 37.884 251.161 36.276 251.161 34.164C251.161 32.04 251.539 30.426 252.295 29.322C253.051 28.218 254.155 27.666 255.607 27.666C257.059 27.666 258.163 28.218 258.919 29.322C259.675 30.414 260.053 32.022 260.053 34.146C260.053 36.27 259.675 37.884 258.919 38.988C258.163 40.092 257.059 40.644 255.607 40.644ZM255.607 39.402C256.615 39.402 257.359 38.976 257.839 38.124C258.319 37.272 258.559 35.946 258.559 34.146C258.559 32.334 258.319 31.014 257.839 30.186C257.371 29.346 256.627 28.926 255.607 28.926C254.599 28.926 253.855 29.346 253.375 30.186C252.895 31.026 252.655 32.346 252.655 34.146C252.655 35.946 252.895 37.272 253.375 38.124C253.855 38.976 254.599 39.402 255.607 39.402ZM265.086 40.338L272.592 27.36L273.654 27.972L266.148 40.95L265.086 40.338ZM265.05 35.424C264.09 35.424 263.34 35.1 262.8 34.452C262.26 33.792 261.99 32.82 261.99 31.536C261.99 30.264 262.26 29.304 262.8 28.656C263.34 27.996 264.09 27.666 265.05 27.666C266.01 27.666 266.76 27.996 267.3 28.656C267.84 29.304 268.11 30.264 268.11 31.536C268.11 32.82 267.84 33.792 267.3 34.452C266.76 35.1 266.01 35.424 265.05 35.424ZM265.05 34.38C265.638 34.38 266.07 34.152 266.346 33.696C266.634 33.24 266.778 32.52 266.778 31.536C266.778 30.564 266.634 29.85 266.346 29.394C266.07 28.938 265.638 28.71 265.05 28.71C264.462 28.71 264.024 28.938 263.736 29.394C263.448 29.85 263.304 30.564 263.304 31.536C263.304 32.52 263.448 33.24 263.736 33.696C264.024 34.152 264.462 34.38 265.05 34.38ZM273.69 40.626C272.73 40.626 271.98 40.302 271.44 39.654C270.9 38.994 270.63 38.022 270.63 36.738C270.63 35.466 270.9 34.506 271.44 33.858C271.98 33.198 272.73 32.868 273.69 32.868C274.662 32.868 275.412 33.192 275.94 33.84C276.48 34.488 276.75 35.454 276.75 36.738C276.75 38.022 276.48 38.994 275.94 39.654C275.412 40.302 274.662 40.626 273.69 40.626ZM273.69 39.582C274.29 39.582 274.728 39.36 275.004 38.916C275.292 38.46 275.436 37.734 275.436 36.738C275.436 35.766 275.292 35.052 275.004 34.596C274.716 34.14 274.278 33.912 273.69 33.912C273.102 33.912 272.664 34.14 272.376 34.596C272.1 35.052 271.962 35.766 271.962 36.738C271.962 37.722 272.1 38.442 272.376 38.898C272.664 39.354 273.102 39.582 273.69 39.582ZM287.361 40.626C286.533 40.626 285.801 40.44 285.165 40.068C284.541 39.696 284.055 39.168 283.707 38.484C283.371 37.788 283.203 36.984 283.203 36.072C283.203 35.16 283.371 34.362 283.707 33.678C284.055 32.982 284.541 32.448 285.165 32.076C285.801 31.704 286.533 31.518 287.361 31.518C288.189 31.518 288.921 31.704 289.557 32.076C290.193 32.448 290.679 32.982 291.015 33.678C291.363 34.362 291.537 35.16 291.537 36.072C291.537 36.984 291.363 37.788 291.015 38.484C290.679 39.168 290.193 39.696 289.557 40.068C288.921 40.44 288.189 40.626 287.361 40.626ZM287.361 39.42C288.225 39.42 288.885 39.138 289.341 38.574C289.809 37.998 290.043 37.164 290.043 36.072C290.043 35.004 289.809 34.182 289.341 33.606C288.873 33.018 288.213 32.724 287.361 32.724C286.509 32.724 285.849 33.018 285.381 33.606C284.913 34.182 284.679 35.004 284.679 36.072C284.679 37.152 284.907 37.98 285.363 38.556C285.831 39.132 286.497 39.42 287.361 39.42ZM295.636 31.734H298.12V32.886H295.636V40.5H294.178V32.886H292.468V31.734H294.178V31.446C294.178 30.282 294.466 29.4 295.042 28.8C295.63 28.2 296.53 27.864 297.742 27.792L298.462 27.756L298.57 28.89L297.742 28.944C297.01 28.992 296.476 29.202 296.14 29.574C295.804 29.934 295.636 30.492 295.636 31.248V31.734ZM308.091 39.456C308.355 39.456 308.619 39.438 308.883 39.402L308.811 40.554C308.535 40.602 308.235 40.626 307.911 40.626C306.855 40.626 306.057 40.35 305.517 39.798C304.989 39.246 304.725 38.478 304.725 37.494V32.886H303.015V31.734H304.725V29.07H306.183V31.734H308.667V32.886H306.183V37.386C306.183 38.766 306.819 39.456 308.091 39.456ZM314.766 31.518C316.866 31.518 317.916 32.676 317.916 34.992V40.5H316.458V35.082C316.458 34.266 316.296 33.672 315.972 33.3C315.66 32.928 315.156 32.742 314.46 32.742C313.656 32.742 313.014 32.988 312.534 33.48C312.054 33.972 311.814 34.638 311.814 35.478V40.5H310.356V27.81H311.814V33.138C312.102 32.61 312.498 32.208 313.002 31.932C313.518 31.656 314.106 31.518 314.766 31.518ZM327.93 36.342H321.522C321.57 37.362 321.846 38.136 322.35 38.664C322.854 39.18 323.568 39.438 324.492 39.438C325.512 39.438 326.448 39.09 327.3 38.394L327.786 39.456C327.402 39.816 326.91 40.104 326.31 40.32C325.71 40.524 325.098 40.626 324.474 40.626C323.106 40.626 322.026 40.224 321.234 39.42C320.454 38.616 320.064 37.506 320.064 36.09C320.064 35.19 320.238 34.398 320.586 33.714C320.934 33.018 321.42 32.478 322.044 32.094C322.68 31.71 323.4 31.518 324.204 31.518C325.368 31.518 326.28 31.902 326.94 32.67C327.6 33.426 327.93 34.47 327.93 35.802V36.342ZM324.222 32.652C323.454 32.652 322.836 32.892 322.368 33.372C321.912 33.852 321.642 34.53 321.558 35.406H326.652C326.628 34.518 326.406 33.84 325.986 33.372C325.566 32.892 324.978 32.652 324.222 32.652ZM122.058 66.626C121.194 66.626 120.444 66.44 119.808 66.068C119.172 65.696 118.68 65.174 118.332 64.502C117.996 63.818 117.828 63.02 117.828 62.108C117.828 61.196 118.002 60.398 118.35 59.714C118.71 59.018 119.208 58.478 119.844 58.094C120.492 57.71 121.248 57.518 122.112 57.518C122.7 57.518 123.276 57.626 123.84 57.842C124.404 58.046 124.86 58.322 125.208 58.67L124.722 59.75C123.894 59.078 123.054 58.742 122.202 58.742C121.302 58.742 120.6 59.036 120.096 59.624C119.592 60.212 119.34 61.04 119.34 62.108C119.34 63.164 119.592 63.98 120.096 64.556C120.6 65.132 121.302 65.42 122.202 65.42C123.054 65.42 123.894 65.084 124.722 64.412L125.208 65.492C124.836 65.84 124.368 66.116 123.804 66.32C123.24 66.524 122.658 66.626 122.058 66.626ZM130.599 66.626C129.771 66.626 129.039 66.44 128.403 66.068C127.779 65.696 127.293 65.168 126.945 64.484C126.609 63.788 126.441 62.984 126.441 62.072C126.441 61.16 126.609 60.362 126.945 59.678C127.293 58.982 127.779 58.448 128.403 58.076C129.039 57.704 129.771 57.518 130.599 57.518C131.427 57.518 132.159 57.704 132.795 58.076C133.431 58.448 133.917 58.982 134.253 59.678C134.601 60.362 134.775 61.16 134.775 62.072C134.775 62.984 134.601 63.788 134.253 64.484C133.917 65.168 133.431 65.696 132.795 66.068C132.159 66.44 131.427 66.626 130.599 66.626ZM130.599 65.42C131.463 65.42 132.123 65.138 132.579 64.574C133.047 63.998 133.281 63.164 133.281 62.072C133.281 61.004 133.047 60.182 132.579 59.606C132.111 59.018 131.451 58.724 130.599 58.724C129.747 58.724 129.087 59.018 128.619 59.606C128.151 60.182 127.917 61.004 127.917 62.072C127.917 63.152 128.145 63.98 128.601 64.556C129.069 65.132 129.735 65.42 130.599 65.42ZM139.918 66.626C138.442 66.626 137.272 66.248 136.408 65.492L136.894 64.412C137.362 64.784 137.836 65.054 138.316 65.222C138.808 65.378 139.36 65.456 139.972 65.456C140.62 65.456 141.112 65.348 141.448 65.132C141.796 64.904 141.97 64.58 141.97 64.16C141.97 63.812 141.856 63.536 141.628 63.332C141.4 63.128 141.022 62.966 140.494 62.846L139.018 62.504C138.274 62.336 137.704 62.048 137.308 61.64C136.912 61.232 136.714 60.728 136.714 60.128C136.714 59.348 137.02 58.718 137.632 58.238C138.244 57.758 139.06 57.518 140.08 57.518C140.692 57.518 141.274 57.62 141.826 57.824C142.378 58.016 142.84 58.298 143.212 58.67L142.726 59.732C141.922 59.048 141.04 58.706 140.08 58.706C139.468 58.706 138.988 58.826 138.64 59.066C138.304 59.294 138.136 59.618 138.136 60.038C138.136 60.386 138.238 60.668 138.442 60.884C138.658 61.088 139 61.244 139.468 61.352L140.962 61.712C141.778 61.904 142.384 62.198 142.78 62.594C143.176 62.978 143.374 63.482 143.374 64.106C143.374 64.874 143.062 65.486 142.438 65.942C141.826 66.398 140.986 66.626 139.918 66.626ZM149.36 65.456C149.624 65.456 149.888 65.438 150.152 65.402L150.08 66.554C149.804 66.602 149.504 66.626 149.18 66.626C148.124 66.626 147.326 66.35 146.786 65.798C146.258 65.246 145.994 64.478 145.994 63.494V58.886H144.284V57.734H145.994V55.07H147.452V57.734H149.936V58.886H147.452V63.386C147.452 64.766 148.088 65.456 149.36 65.456ZM159.902 66.626C159.074 66.626 158.342 66.44 157.706 66.068C157.082 65.696 156.596 65.168 156.248 64.484C155.912 63.788 155.744 62.984 155.744 62.072C155.744 61.16 155.912 60.362 156.248 59.678C156.596 58.982 157.082 58.448 157.706 58.076C158.342 57.704 159.074 57.518 159.902 57.518C160.73 57.518 161.462 57.704 162.098 58.076C162.734 58.448 163.22 58.982 163.556 59.678C163.904 60.362 164.078 61.16 164.078 62.072C164.078 62.984 163.904 63.788 163.556 64.484C163.22 65.168 162.734 65.696 162.098 66.068C161.462 66.44 160.73 66.626 159.902 66.626ZM159.902 65.42C160.766 65.42 161.426 65.138 161.882 64.574C162.35 63.998 162.584 63.164 162.584 62.072C162.584 61.004 162.35 60.182 161.882 59.606C161.414 59.018 160.754 58.724 159.902 58.724C159.05 58.724 158.39 59.018 157.922 59.606C157.454 60.182 157.22 61.004 157.22 62.072C157.22 63.152 157.448 63.98 157.904 64.556C158.372 65.132 159.038 65.42 159.902 65.42ZM168.177 57.734H170.661V58.886H168.177V66.5H166.719V58.886H165.009V57.734H166.719V57.446C166.719 56.282 167.007 55.4 167.583 54.8C168.171 54.2 169.071 53.864 170.283 53.792L171.003 53.756L171.111 54.89L170.283 54.944C169.551 54.992 169.017 55.202 168.681 55.574C168.345 55.934 168.177 56.492 168.177 57.248V57.734ZM186.536 57.518C188.48 57.518 189.452 58.676 189.452 60.992V66.5H187.994V61.064C187.994 60.26 187.85 59.672 187.562 59.3C187.286 58.928 186.836 58.742 186.212 58.742C185.48 58.742 184.904 58.988 184.484 59.48C184.064 59.972 183.854 60.644 183.854 61.496V66.5H182.396V61.064C182.396 60.248 182.252 59.66 181.964 59.3C181.676 58.928 181.22 58.742 180.596 58.742C179.864 58.742 179.288 58.988 178.868 59.48C178.448 59.972 178.238 60.644 178.238 61.496V66.5H176.78V57.734H178.22V59.12C178.484 58.604 178.85 58.208 179.318 57.932C179.786 57.656 180.326 57.518 180.938 57.518C182.294 57.518 183.188 58.094 183.62 59.246C183.872 58.706 184.256 58.286 184.772 57.986C185.288 57.674 185.876 57.518 186.536 57.518ZM195.672 57.518C196.788 57.518 197.616 57.806 198.156 58.382C198.708 58.946 198.984 59.81 198.984 60.974V66.5H197.562V65.006C197.334 65.522 196.986 65.924 196.518 66.212C196.05 66.488 195.51 66.626 194.898 66.626C194.334 66.626 193.812 66.512 193.332 66.284C192.864 66.056 192.492 65.738 192.216 65.33C191.94 64.922 191.802 64.472 191.802 63.98C191.802 63.32 191.97 62.81 192.306 62.45C192.642 62.078 193.194 61.814 193.962 61.658C194.73 61.49 195.798 61.406 197.166 61.406H197.562V60.812C197.562 60.08 197.412 59.552 197.112 59.228C196.812 58.892 196.326 58.724 195.654 58.724C194.646 58.724 193.644 59.036 192.648 59.66L192.162 58.598C192.618 58.274 193.164 58.016 193.8 57.824C194.448 57.62 195.072 57.518 195.672 57.518ZM195.096 65.474C195.816 65.474 196.404 65.234 196.86 64.754C197.328 64.262 197.562 63.632 197.562 62.864V62.342H197.238C196.182 62.342 195.378 62.39 194.826 62.486C194.274 62.57 193.878 62.72 193.638 62.936C193.41 63.14 193.296 63.446 193.296 63.854C193.296 64.322 193.464 64.712 193.8 65.024C194.148 65.324 194.58 65.474 195.096 65.474ZM205.505 65.456C205.769 65.456 206.033 65.438 206.297 65.402L206.225 66.554C205.949 66.602 205.649 66.626 205.325 66.626C204.269 66.626 203.471 66.35 202.931 65.798C202.403 65.246 202.139 64.478 202.139 63.494V58.886H200.429V57.734H202.139V55.07H203.597V57.734H206.081V58.886H203.597V63.386C203.597 64.766 204.233 65.456 205.505 65.456ZM215.114 62.342H208.706C208.754 63.362 209.03 64.136 209.534 64.664C210.038 65.18 210.752 65.438 211.676 65.438C212.696 65.438 213.632 65.09 214.484 64.394L214.97 65.456C214.586 65.816 214.094 66.104 213.494 66.32C212.894 66.524 212.282 66.626 211.658 66.626C210.29 66.626 209.21 66.224 208.418 65.42C207.638 64.616 207.248 63.506 207.248 62.09C207.248 61.19 207.422 60.398 207.77 59.714C208.118 59.018 208.604 58.478 209.228 58.094C209.864 57.71 210.584 57.518 211.388 57.518C212.552 57.518 213.464 57.902 214.124 58.67C214.784 59.426 215.114 60.47 215.114 61.802V62.342ZM211.406 58.652C210.638 58.652 210.02 58.892 209.552 59.372C209.096 59.852 208.826 60.53 208.742 61.406H213.836C213.812 60.518 213.59 59.84 213.17 59.372C212.75 58.892 212.162 58.652 211.406 58.652ZM222.23 58.778L221.276 58.868C220.376 58.952 219.722 59.234 219.314 59.714C218.918 60.194 218.72 60.788 218.72 61.496V66.5H217.262V57.734H218.684V59.264C219.176 58.244 220.142 57.674 221.582 57.554L222.104 57.518L222.23 58.778ZM223.608 57.734H225.066V66.5H223.608V57.734ZM225.228 53.936V55.574H223.464V53.936H225.228ZM231.355 57.518C232.471 57.518 233.299 57.806 233.839 58.382C234.391 58.946 234.667 59.81 234.667 60.974V66.5H233.245V65.006C233.017 65.522 232.669 65.924 232.201 66.212C231.733 66.488 231.193 66.626 230.581 66.626C230.017 66.626 229.495 66.512 229.015 66.284C228.547 66.056 228.175 65.738 227.899 65.33C227.623 64.922 227.485 64.472 227.485 63.98C227.485 63.32 227.653 62.81 227.989 62.45C228.325 62.078 228.877 61.814 229.645 61.658C230.413 61.49 231.481 61.406 232.849 61.406H233.245V60.812C233.245 60.08 233.095 59.552 232.795 59.228C232.495 58.892 232.009 58.724 231.337 58.724C230.329 58.724 229.327 59.036 228.331 59.66L227.845 58.598C228.301 58.274 228.847 58.016 229.483 57.824C230.131 57.62 230.755 57.518 231.355 57.518ZM230.779 65.474C231.499 65.474 232.087 65.234 232.543 64.754C233.011 64.262 233.245 63.632 233.245 62.864V62.342H232.921C231.865 62.342 231.061 62.39 230.509 62.486C229.957 62.57 229.561 62.72 229.321 62.936C229.093 63.14 228.979 63.446 228.979 63.854C228.979 64.322 229.147 64.712 229.483 65.024C229.831 65.324 230.263 65.474 230.779 65.474ZM237.336 53.81H238.794V66.5H237.336V53.81ZM244.49 66.626C243.014 66.626 241.844 66.248 240.98 65.492L241.466 64.412C241.934 64.784 242.408 65.054 242.888 65.222C243.38 65.378 243.932 65.456 244.544 65.456C245.192 65.456 245.684 65.348 246.02 65.132C246.368 64.904 246.542 64.58 246.542 64.16C246.542 63.812 246.428 63.536 246.2 63.332C245.972 63.128 245.594 62.966 245.066 62.846L243.59 62.504C242.846 62.336 242.276 62.048 241.88 61.64C241.484 61.232 241.286 60.728 241.286 60.128C241.286 59.348 241.592 58.718 242.204 58.238C242.816 57.758 243.632 57.518 244.652 57.518C245.264 57.518 245.846 57.62 246.398 57.824C246.95 58.016 247.412 58.298 247.784 58.67L247.298 59.732C246.494 59.048 245.612 58.706 244.652 58.706C244.04 58.706 243.56 58.826 243.212 59.066C242.876 59.294 242.708 59.618 242.708 60.038C242.708 60.386 242.81 60.668 243.014 60.884C243.23 61.088 243.572 61.244 244.04 61.352L245.534 61.712C246.35 61.904 246.956 62.198 247.352 62.594C247.748 62.978 247.946 63.482 247.946 64.106C247.946 64.874 247.634 65.486 247.01 65.942C246.398 66.398 245.558 66.626 244.49 66.626Z" fill="#E3B873"/>
</g>
<g filter="url(#filter1_d_1_11112)">
<circle cx="56" cy="46" r="36" fill="#E3B873"/>
</g>
<path d="M56.3396 53.2782C55.9614 53.2782 55.6526 53.5775 55.6526 53.9493V55.2739C55.6526 55.6457 55.9614 55.9449 56.3396 55.9449C56.7178 55.9449 57.0265 55.6457 57.0265 55.2739V53.9493C57.0265 53.5775 56.7178 53.2782 56.3396 53.2782Z" fill="white" stroke="white" stroke-width="0.1"/>
<path d="M73.0581 44.0004L73.0581 44.0004C72.6069 41.8425 71.5951 39.8085 70.1321 38.1178C68.7237 36.4902 66.9214 35.2089 64.9118 34.4013C64.5828 33.0653 63.8927 31.6877 62.5386 30.6503C61.2205 29.6405 59.8931 29.4459 59.8338 29.4375L59.8338 29.4375C59.6374 29.4102 59.4377 29.4672 59.2872 29.5945C59.1366 29.7218 59.0498 29.9068 59.0498 30.1018V33.4054H56.8254C56.236 31.4913 54.4142 30.0933 52.2634 30.0933C50.0652 30.0933 48.2096 31.5532 47.6632 33.5323C44.5152 33.9581 41.6197 35.4488 39.4692 37.7623L39.5059 37.7963L39.4692 37.7623C37.2 40.2038 35.95 43.3646 35.95 46.6624C35.95 54.0521 39.8839 60.0623 41.0891 61.7278C41.4705 62.2549 42.0945 62.5691 42.7582 62.5691H45.4692C46.5961 62.5691 47.515 61.675 47.515 60.5732V59.7716C48.1849 59.8693 48.8649 59.9194 49.5457 59.9194H55.6528V60.5732C55.6528 61.675 56.5717 62.5691 57.6986 62.5691H60.6765C61.634 62.5691 62.4756 61.9067 62.6767 60.9917L62.9969 59.5352C67.173 58.5336 70.5324 55.6771 72.1959 51.9705H74.6837C75.4359 51.9705 76.05 51.3736 76.05 50.6371V45.3377C76.05 44.981 75.9075 44.6458 75.6493 44.3941C75.3912 44.1425 75.0483 44.0041 74.6838 44.0041H74.6837H74.6837H74.6837H74.6836H74.6836H74.6836H74.6835L73.0592 44.0043C73.0587 44.003 73.0584 44.0017 73.0581 44.0004ZM74.6762 50.5869H74.6761V50.6284H72.7111C73.0469 49.5848 73.2538 48.4889 73.3138 47.3596C73.3337 46.9883 73.0411 46.6738 72.6633 46.6547C72.2857 46.636 71.9615 46.9187 71.9418 47.29C71.6746 52.3126 68.1861 56.6062 63.3218 58.0564L64.1936 54.0901C64.2736 53.7265 64.0358 53.3704 63.6656 53.2931C63.2961 53.2156 62.9301 53.4453 62.8503 53.8084L61.3334 60.7099C61.2678 61.0085 60.9919 61.227 60.6765 61.227H57.6984C57.3268 61.227 57.0266 60.9325 57.0266 60.5732V57.9235C57.0266 57.5517 56.7178 57.2524 56.3396 57.2524C55.9614 57.2524 55.6527 57.5517 55.6527 57.9235V58.5773H49.5455C48.8637 58.5773 48.1831 58.5213 47.5148 58.4125V53.949C47.5148 53.5772 47.2061 53.278 46.8279 53.278C46.4497 53.278 46.1409 53.5772 46.1409 53.949V60.5732C46.1409 60.9325 45.8407 61.2271 45.4691 61.2271H42.7582C42.5355 61.2271 42.3366 61.127 42.2111 60.9533L42.2111 60.9533C41.0641 59.3681 37.3239 53.6542 37.3239 46.6624C37.3239 43.699 38.4469 40.8586 40.4864 38.6645L40.4498 38.6304L40.4864 38.6645C42.3401 36.67 44.8092 35.3559 47.5037 34.9137C47.5187 35.3017 47.5834 35.6852 47.695 36.055H47.5074C47.1292 36.055 46.8205 36.3542 46.8205 36.726C46.8205 37.0978 47.1292 37.3971 47.5074 37.3971H57.0191C57.3974 37.3971 57.7061 37.0978 57.7061 36.726C57.7061 36.3542 57.3974 36.055 57.0191 36.055H56.8315C56.9592 35.6325 57.0258 35.192 57.0266 34.7474H59.0498V36.0636C59.0498 36.4354 59.3585 36.7346 59.7367 36.7346C60.1149 36.7346 60.4237 36.4354 60.4237 36.0636V30.9896C61.0183 31.2188 61.843 31.6672 62.5288 32.5227C63.2404 33.4102 63.8056 34.7396 63.8056 36.7261C63.8056 37.0979 64.1144 37.3971 64.4926 37.3971C64.8708 37.3971 65.1795 37.0979 65.1795 36.7261C65.1795 36.4882 65.1716 36.2384 65.1536 35.9805C66.6527 36.7054 67.9978 37.7305 69.0829 38.9844C70.3977 40.5038 71.3068 42.3312 71.712 44.269C71.8426 44.8939 72.4049 45.3465 73.0487 45.3464L74.6762 45.3463V50.5869ZM52.2633 31.4354C54.1334 31.4354 55.6527 32.9186 55.6527 34.7389C55.6527 35.1938 55.5552 35.642 55.371 36.0552H49.1555C48.9714 35.6419 48.8737 35.1938 48.8737 34.7389C48.8737 32.9185 50.3931 31.4354 52.2633 31.4354Z" fill="white" stroke="white" stroke-width="0.1"/>
<path d="M63.9116 44.4405L63.9116 44.4405C64.315 43.3857 65.3808 42.6794 66.5621 42.6794C67.7433 42.6794 68.8093 43.3857 69.2125 44.4405C69.2125 44.4405 69.2125 44.4405 69.2125 44.4405L69.1658 44.4583C69.2887 44.7796 69.1211 45.1373 68.7915 45.2571L63.9116 44.4405ZM63.9116 44.4405C63.7784 44.7888 63.9605 45.1751 64.3155 45.3041M63.9116 44.4405L64.3155 45.3041M64.3155 45.3041C64.67 45.4331 65.0657 45.2577 65.1986 44.9101L64.3155 45.3041ZM68.5691 45.3464C68.6488 45.3464 68.7297 45.3328 68.8086 45.3041L65.1986 44.91C65.4011 44.3805 65.9479 44.0214 66.562 44.0214C67.1761 44.0214 67.723 44.3805 67.9255 44.9101C68.0289 45.1805 68.2913 45.3464 68.5691 45.3464Z" fill="white" stroke="white" stroke-width="0.1"/>
<path d="M55.2116 47.0757C54.5601 46.6339 53.7201 46.3632 52.9502 46.1509V43.072C53.5451 43.1491 54.0484 43.3214 54.4047 43.5342C54.7758 43.7558 54.9733 44.0121 54.9733 44.2406C54.9733 44.6124 55.2821 44.9116 55.6603 44.9116C56.0385 44.9116 56.3472 44.6124 56.3472 44.2406C56.3472 43.585 55.9732 42.9989 55.3589 42.5557C54.754 42.1193 53.9127 41.8182 52.9502 41.7204V41.6944C52.9502 41.3226 52.6414 41.0234 52.2632 41.0234C51.885 41.0234 51.5763 41.3226 51.5763 41.6944V41.7204C50.6138 41.8182 49.7724 42.1193 49.1676 42.5557C48.5533 42.9989 48.1792 43.585 48.1792 44.2406C48.1792 45.1681 48.6508 45.799 49.3149 46.2494C49.9663 46.6912 50.8064 46.9619 51.5763 47.1742V50.2531C50.9814 50.176 50.4781 50.0037 50.1218 49.7909C49.7506 49.5693 49.5532 49.313 49.5532 49.0845C49.5532 48.7127 49.2444 48.4135 48.8662 48.4135C48.488 48.4135 48.1792 48.7127 48.1792 49.0845C48.1792 49.7401 48.5533 50.3262 49.1676 50.7694C49.7724 51.2058 50.6138 51.5069 51.5763 51.6047V51.6307C51.5763 52.0025 51.885 52.3017 52.2632 52.3017C52.6414 52.3017 52.9502 52.0025 52.9502 51.6307V51.6047C53.9127 51.5069 54.754 51.2058 55.3589 50.7694C55.9732 50.3262 56.3472 49.7401 56.3472 49.0845C56.3472 48.157 55.8757 47.5261 55.2116 47.0757ZM51.5763 43.072V45.7681C50.8286 45.5358 50.3248 45.3146 50.0067 45.0733C49.6827 44.8275 49.5532 44.5627 49.5532 44.2406C49.5532 44.0121 49.7506 43.7558 50.1218 43.5342C50.4781 43.3214 50.9814 43.1491 51.5763 43.072ZM54.4047 49.791C54.0484 50.0038 53.545 50.1761 52.9502 50.2532V47.557C53.6979 47.7893 54.2016 48.0105 54.5198 48.2519C54.8437 48.4976 54.9733 48.7625 54.9733 49.0846C54.9733 49.3131 54.7758 49.5694 54.4047 49.791Z" fill="white" stroke="white" stroke-width="0.1"/>
<defs>
<filter id="filter0_d_1_11112" x="107.828" y="20.36" width="230.102" height="59.266" filterUnits="userSpaceOnUse" color-interpolation-filters="sRGB">
<feFlood flood-opacity="0" result="BackgroundImageFix"/>
<feColorMatrix in="SourceAlpha" type="matrix" values="0 0 0 0 0 0 0 0 0 0 0 0 0 0 0 0 0 0 127 0" result="hardAlpha"/>
<feOffset dy="3"/>
<feGaussianBlur stdDeviation="5"/>
<feColorMatrix type="matrix" values="0 0 0 0 0.890196 0 0 0 0 0.721569 0 0 0 0 0.45098 0 0 0 0.15 0"/>
<feBlend mode="normal" in2="BackgroundImageFix" result="effect1_dropShadow_1_11112"/>
<feBlend mode="normal" in="SourceGraphic" in2="effect1_dropShadow_1_11112" result="shape"/>
</filter>
<filter id="filter1_d_1_11112" x="0" y="0" width="112" height="112" filterUnits="userSpaceOnUse" color-interpolation-filters="sRGB">
<feFlood flood-opacity="0" result="BackgroundImageFix"/>
<feColorMatrix in="SourceAlpha" type="matrix" values="0 0 0 0 0 0 0 0 0 0 0 0 0 0 0 0 0 0 127 0" result="hardAlpha"/>
<feOffset dy="10"/>
<feGaussianBlur stdDeviation="10"/>
<feColorMatrix type="matrix" values="0 0 0 0 0.929412 0 0 0 0 0.752941 0 0 0 0 0.470588 0 0 0 0.2 0"/>
<feBlend mode="normal" in2="BackgroundImageFix" result="effect1_dropShadow_1_11112"/>
<feBlend mode="normal" in="SourceGraphic" in2="effect1_dropShadow_1_11112" result="shape"/>
</filter>
</defs>
</svg>
